# xmcd CD Database Entry
#
# Track frame offsets:
# 150
# 1762
# 5788
# 7216
# 10762
# 15523
# 17028
# 20037
# 24980
# 26791
# 30800
# 35596
# 37369
# 41301
# 45773
# 47149
# 50350
# 55613
# 57034
# 59928
# 64836
# 66542
# 70140
# 75389
# 77503
# 81052
# 85222
# 86765
# 90610
# 95232
# 96956
# 100630
# 104744
# 106050
# 110048
# 115231
# 117474
# 120988
# 125704
# 127488
# 130946
# 135276
# 136854
# 140082
# 145338
# 146592
# 150392
# 155251
# 156860
# 160374
# 164481
# 165714
# 169019
# 174045
# 175887
# 180022
# 184595
# 186876
# 190847
# 195873
# 197534
# 200836
# 205287
# 206851
# 210198
# 215078
# 217157
# 220578
# 225715
# 227610
# 230985
# 235854
# 237359
# 240943
# 246362
# 247968
# 251507
# 256679
# 258093
# 261778
# 266706
# 268431
# 271889
# 276978
# 278437
# 281844
# 286438
# 288287
# 291892
# 295518
# 296907
#
# Disc length: 4011 seconds
#
# Revision: 2
# Processed by: cddbd v1.5.2PL0 Copyright (c) Steve Scherf et al.
# Submitted via: tcd 2.0b
#
DISCID=320fa95b
DTITLE=未知 - 未知
DYEAR=1900
DGENRE=
TTITLE0=トラック 1
TTITLE1=トラック 2
TTITLE2=トラック 3
TTITLE3=トラック 4
TTITLE4=トラック 5
TTITLE5=トラック 6
TTITLE6=トラック 7
TTITLE7=トラック 8
TTITLE8=トラック 9
TTITLE9=トラック 10
TTITLE10=トラック 11
TTITLE11=トラック 12
TTITLE12=トラック 13
TTITLE13=トラック 14
TTITLE14=トラック 15
TTITLE15=トラック 16
TTITLE16=トラック 17
TTITLE17=トラック 18
TTITLE18=トラック 19
TTITLE19=トラック 20
TTITLE20=トラック 21
TTITLE21=トラック 22
TTITLE22=トラック 23
TTITLE23=トラック 24
TTITLE24=トラック 25
TTITLE25=トラック 26
TTITLE26=トラック 27
TTITLE27=トラック 28
TTITLE28=トラック 29
TTITLE29=トラック 30
TTITLE30=トラック 31
TTITLE31=トラック 32
TTITLE32=トラック 33
TTITLE33=トラック 34
TTITLE34=トラック 35
TTITLE35=トラック 36
TTITLE36=トラック 37
TTITLE37=トラック 38
TTITLE38=トラック 39
TTITLE39=トラック 40
TTITLE40=トラック 41
TTITLE41=トラック 42
TTITLE42=トラック 43
TTITLE43=トラック 44
TTITLE44=トラック 45
TTITLE45=トラック 46
TTITLE46=トラック 47
TTITLE47=トラック 48
TTITLE48=トラック 49
TTITLE49=トラック 50
TTITLE50=トラック 51
TTITLE51=トラック 52
TTITLE52=トラック 53
TTITLE53=トラック 54
TTITLE54=トラック 55
TTITLE55=トラック 56
TTITLE56=トラック 57
TTITLE57=トラック 58
TTITLE58=トラック 59
TTITLE59=トラック 60
TTITLE60=トラック 61
TTITLE61=トラック 62
TTITLE62=トラック 63
TTITLE63=トラック 64
TTITLE64=トラック 65
TTITLE65=トラック 66
TTITLE66=トラック 67
TTITLE67=トラック 68
TTITLE68=トラック 69
TTITLE69=トラック 70
TTITLE70=トラック 71
TTITLE71=トラック 72
TTITLE72=トラック 73
TTITLE73=トラック 74
TTITLE74=トラック 75
TTITLE75=トラック 76
TTITLE76=トラック 77
TTITLE77=トラック 78
TTITLE78=トラック 79
TTITLE79=トラック 80
TTITLE80=トラック 81
TTITLE81=トラック 82
TTITLE82=トラック 83
TTITLE83=トラック 84
TTITLE84=トラック 85
TTITLE85=トラック 86
TTITLE86=トラック 87
TTITLE87=トラック 88
TTITLE88=トラック 89
TTITLE89=トラック 90
TTITLE90=トラック 91
EXTD=
EXTT0=
EXTT1=
EXTT2=
EXTT3=
EXTT4=
EXTT5=
EXTT6=
EXTT7=
EXTT8=
EXTT9=
EXTT10=
EXTT11=
EXTT12=
EXTT13=
EXTT14=
EXTT15=
EXTT16=
EXTT17=
EXTT18=
EXTT19=
EXTT20=
EXTT21=
EXTT22=
EXTT23=
EXTT24=
EXTT25=
EXTT26=
EXTT27=
EXTT28=
EXTT29=
EXTT30=
EXTT31=
EXTT32=
EXTT33=
EXTT34=
EXTT35=
EXTT36=
EXTT37=
EXTT38=
EXTT39=
EXTT40=
EXTT41=
EXTT42=
EXTT43=
EXTT44=
EXTT45=
EXTT46=
EXTT47=
EXTT48=
EXTT49=
EXTT50=
EXTT51=
EXTT52=
EXTT53=
EXTT54=
EXTT55=
EXTT56=
EXTT57=
EXTT58=
EXTT59=
EXTT60=
EXTT61=
EXTT62=
EXTT63=
EXTT64=
EXTT65=
EXTT66=
EXTT67=
EXTT68=
EXTT69=
EXTT70=
EXTT71=
EXTT72=
EXTT73=
EXTT74=
EXTT75=
EXTT76=
EXTT77=
EXTT78=
EXTT79=
EXTT80=
EXTT81=
EXTT82=
EXTT83=
EXTT84=
EXTT85=
EXTT86=
EXTT87=
EXTT88=
EXTT89=
EXTT90=
PLAYORDER=
